<?xml version="1.0" encoding="utf-8"?>
<!-- Generator: Adobe Illustrator 28.3.0, SVG Export Plug-In . SVG Version: 6.00 Build 0)  -->
<svg version="1.1" xmlns="http://www.w3.org/2000/svg" xmlns:xlink="http://www.w3.org/1999/xlink" x="0px" y="0px"
	 viewBox="0 0 696.63 354.73" style="enable-background:new 0 0 696.63 354.73;" xml:space="preserve">
<style type="text/css">
	.st0{fill:#FFFFFF;}
	.st1{fill:none;stroke:#000000;stroke-miterlimit:10;}
	.st2{opacity:0.19;}
	.st3{fill:url(#SVGID_1_);}
	.st4{fill:url(#SVGID_00000148638888203538492600000003206552947081995406_);}
	.st5{fill:url(#SVGID_00000049908160952114448280000005776143552266684333_);}
	.st6{fill:url(#SVGID_00000078766978724842303110000011796090652257577624_);}
	.st7{fill:url(#SVGID_00000159459311699342694100000015390292341469843383_);}
	.st8{fill:url(#SVGID_00000002382158082961048080000017439235468906792348_);}
	.st9{fill:url(#SVGID_00000130617262715161223390000006233077131849993103_);}
	.st10{fill:url(#SVGID_00000112599829207017987420000011814392753353710472_);}
	.st11{fill:url(#SVGID_00000140005226668159140010000017873480491519872416_);}
	.st12{fill:url(#SVGID_00000156560904564818238020000005982493777448228240_);}
	.st13{fill:url(#SVGID_00000127007476792623153720000000056296803919537815_);}
	.st14{fill:url(#SVGID_00000065035190251731305180000017201515757217739674_);}
	.st15{fill:url(#SVGID_00000049200551699128998570000015137892319608171907_);}
	.st16{fill:url(#SVGID_00000164507162656440297020000011934821460725612434_);}
	.st17{fill:url(#SVGID_00000041984785298733039380000007185883295878481823_);}
	.st18{fill:url(#SVGID_00000042727706171050315460000017927177984143400371_);}
	.st19{fill:url(#SVGID_00000117651416138753222680000007945261915148011923_);}
	.st20{fill:url(#SVGID_00000059305062345524780670000012020777530521562545_);}
	.st21{fill:url(#SVGID_00000043432649548632410740000011254658665465586879_);}
	.st22{fill:url(#SVGID_00000101823110531508129570000010598360090425918365_);}
	.st23{fill:url(#SVGID_00000083056741101033061060000000748216477276435586_);}
	.st24{fill:url(#SVGID_00000026122239382890322990000009258711862786790023_);}
	.st25{fill:url(#SVGID_00000008113955175379860820000001819234204872874901_);}
	.st26{fill:url(#SVGID_00000004538520857886221060000002085387635982536613_);}
	.st27{fill:url(#SVGID_00000116931474707129977600000016328591738529405873_);}
	.st28{fill:url(#SVGID_00000039097108382337072900000017483416729329762991_);}
	.st29{fill:url(#SVGID_00000099645179728299398100000011002610024553951167_);}
	.st30{fill:url(#SVGID_00000013192320793103176170000014533862366725076617_);}
	.st31{fill:url(#SVGID_00000085216340204334261960000012934765870178713787_);}
	.st32{fill:url(#SVGID_00000021092987402304511590000010550328285185115023_);}
	.st33{fill:url(#SVGID_00000003092374228306506920000013685382941669908880_);}
	.st34{fill:url(#SVGID_00000000919087287048575030000017628416210830666921_);}
	.st35{fill:url(#SVGID_00000102527905003657009340000004002604922245613489_);}
	.st36{fill:url(#SVGID_00000021816347262688024050000007431149431033584264_);}
	.st37{fill:url(#SVGID_00000158732674028656858760000005031076395107799712_);}
	.st38{fill:url(#SVGID_00000056389587210319079150000007725110008030388111_);}
	.st39{fill:url(#SVGID_00000158743874912611291000000003288884547994812574_);}
	.st40{fill:url(#SVGID_00000156556957184908084830000000286206902976016792_);}
	.st41{fill:url(#SVGID_00000178927097450525771300000003840855398140300931_);}
	.st42{fill:url(#SVGID_00000053517883748831615190000000084335013298378629_);}
	.st43{fill:url(#SVGID_00000021839680136952389070000000010007399290080667_);}
	.st44{fill:url(#SVGID_00000183241825284727873770000004637957805587528084_);}
	.st45{fill:url(#SVGID_00000178198954164095208930000015103479296110373556_);}
	.st46{fill:url(#SVGID_00000132807193613888013870000005320710919151594935_);}
	.st47{fill:url(#SVGID_00000093168988336857672310000011911964865085976989_);}
	.st48{fill:url(#SVGID_00000005243747861635447400000010952182054025010574_);}
	.st49{fill:url(#SVGID_00000085953061013348561520000006982473221341089426_);}
	.st50{fill:url(#SVGID_00000035504483557997397910000010338543024267657360_);}
</style>
<g id="Layer_2">
	<g>
		<path class="st0" d="M450.85,97.43c-3.23,1.34-6.04,2.7-8.61,4.14c-4.71,2.65-7.7,5.19-9.69,8.21c-2.51,3.83-3.02,8.53-1.31,11.97
			c0.93,1.85,2.42,3.37,4.44,4.52c2.92,1.66,6.97,2.61,12.37,2.9c11.91,0.65,23.54,1.11,35.01-0.27l0.89-0.11
			c7.17-0.64,14.77-0.81,23.22-0.49c11.79,0.42,23.74,1.71,35.29,2.96l51.33,5.56c4.59,0.49,9.18,0.99,13.78,1.49
			c4.59,0.5,9.18,1,13.78,1.49c2.42,0.26,4.85,0.53,7.27,0.79c2.55,0.28,5.1,0.55,7.66,0.83c4.8,0.52,10.25,1.11,15.36,2.31
			c4.55,1.05,8.42,2.49,11.83,4.39c4.9,2.74,9.06,6.99,11.4,11.67c1.9,3.76,2.62,7.74,2.07,11.51c-0.96,6.62-5.85,12.73-13.09,16.33
			c-1.36,0.68-2.78,1.26-4.22,1.72c-8.08,2.56-16.5,2.09-25.88,1.27c-8.3-0.73-16.74-1.59-24.9-2.43
			c-14.51-1.49-29.52-3.02-44.31-3.86c-8.66-0.49-16.45-0.72-23.83-0.68c-6.16,0.03-12.44,0.24-18.5,0.44
			c-11.18,0.38-22.75,0.77-34.11,0.03c-6.78-0.44-13.63-1.29-20.26-2.11c-3.96-0.49-8.06-1-12.09-1.41
			c-2.47-0.25-6.17-0.56-9.74-0.32c-0.88,0.04-1.78,0.14-2.67,0.28l-0.03,0c-0.9,0.14-1.7,0.3-2.45,0.49l-0.08,0.02
			c-2.95,0.77-5.43,2.08-7.37,3.91c-1.2,1.13-1.91,2.22-2.17,3.36c-0.61,2.63,1.29,5.25,3.48,6.48c2.4,1.34,5.23,1.58,7.97,1.8
			l57.71,4.66l40.18,2.83c8.92,0.32,16.76,0.22,23.97-0.31c2.88-0.21,5.81-0.51,8.65-0.79c6.96-0.7,14.17-1.42,21.28-1.02
			c7.48,0.42,18.03,2.39,25.92,9.35c0.6,0.53,1.12,1.02,1.58,1.5c4.24,4.35,6.21,9.47,5.39,14.06c-1.01,5.69-6.02,9.6-10.04,11.88
			c-0.95,0.54-1.89,1.02-2.87,1.49c-10.04,4.78-21.67,5.99-31.93,7.06c-1.09,0.11-2.17,0.24-3.26,0.36
			c-7.59,0.85-15.42,1.73-23.01,0.09c1.77,3.35-1.06,7.71-2.04,9.06c-3.91,5.36-8.88,9.93-15.19,13.94
			c-11.27,7.19-24.66,11.3-38.53,15.22l-0.16,0.05c-12.92,3.65-26.28,7.42-39.78,9.42c-1.25,0.18-2.51,0.36-3.76,0.51
			c-10,1.25-20.21,1.66-30.09,2.06c-3.99,0.16-8.11,0.33-12.15,0.55c-10.18,0.54-20.65,1.44-32.01,2.74
			c-23.82,2.73-47.88,6.82-71.15,10.78c-3.91,0.66-7.82,1.33-11.72,1.99c-2.84,0.48-5.67,0.95-8.51,1.42
			c-21.16,3.5-41.89,6.59-62.9,6.07c-5.42-0.14-11.32-0.53-18.58-1.23c-3.79-0.36-7.64-0.78-11.36-1.18
			c-11.41-1.23-23.21-2.51-34.86-2.44c-16.24,0.09-39.57,1.65-54.53,14.02c-2.24,1.85-4.26,3.92-6,6.18l-1.03-0.29
			c-9.81-1.53-23.05-5.98-37.29-17.57c-6.22-5.06-12.63-11.48-19.04-19.61c-9.08-11.52-16.58-24.34-22.3-38.12
			c-7.02-16.85-11.13-34.51-12.22-52.47c-1.14-18.78,2.8-32.37,11.73-40.41l0.11-0.1l0.15,0c7.64-0.05,13.87-3.34,19.47-6.89
			c1.84-1.17,3.7-2.44,5.5-3.66c5.27-3.59,10.72-7.3,16.92-9.51c4.78-1.7,9.9-2.36,14.85-3c1.25-0.16,2.5-0.32,3.74-0.5
			c4.4-0.63,8.9-1.49,13.39-2.56c12.13-2.86,24.86-7.36,38.9-13.74l0.1-0.04c4.07-1.85,8.28-3.86,12.51-5.99
			c2.72-1.37,5.51-2.8,8.53-4.37c6.3-3.29,12.65-6.75,18.8-10.09c10.99-5.98,22.36-12.15,33.84-17.64c2.39-1.14,4.7-1.68,6.89-1.62
			l2.32-3.01l0.05-0.03c3.63-2.56,7.27-5.13,10.9-7.69l6.67-4.7c4.02-2.85,8.58-6.07,13.38-8.53c12.41-6.34,26.98-7.88,39.84-9.24
			l22.19-2.35c11.82-1.24,22.27-2.43,31.97-3.62l0.01,0c26.75-3.26,50.04-6.87,71.2-11.03l0.85-1.11l0.09-0.04
			c18.63-8.2,37.25-16.39,55.88-24.58c2.18-0.97,4.91-2.18,7.71-2.2c2.53-0.02,5.72,1.25,6.76,4.06c0.39,1.06,0.44,2.23,0.48,3.36
			c0.07,1.64,0.13,3.2,1.21,4.18c0.51,0.46,1.13,0.72,1.91,0.78c1.23,0.13,2.69-0.23,3.97-0.55l0.3-0.07
			c6.9-1.71,14.08-0.59,21.04,0.49c2.44,0.38,4.96,0.77,7.43,1.03c6.23,0.66,12.62,0.53,18.8,0.4l28.95-0.62
			c12.85-0.28,25.69-0.55,38.54-0.82c6.26-0.13,12.72-0.27,19,1.14c5.84,1.31,11.2,3.92,15.67,6.3c0.89,0.47,1.77,0.95,2.65,1.43
			l0.12,0.07c4.7,2.57,9.84,5.76,11.45,11.02c1.13,3.69,0.31,8.09-2.26,12.08c-1.28,1.98-2.98,3.72-4.63,5.41
			c-0.57,0.59-1.15,1.18-1.71,1.78c-0.67,0.71-0.8,1.58-1.27,2.17l-0.09,0.1l-0.38,0.32c-8.87,7.52-21.54,11.09-38.65,10.84
			c-4.83-0.07-9.74-0.4-14.49-0.72c-7.11-0.48-14.47-0.97-21.66-0.59l-2.04,0.12c-0.84,0.07-1.69,0.14-2.53,0.24
			c-2.85,0.31-5.74,0.79-8.53,1.26c-3.3,0.55-6.71,1.12-10.11,1.42c-5.51,0.48-11.14,0.23-16.58,0c-2.55-0.11-5.18-0.23-7.76-0.27
			c-5.17-0.09-9.12,0.14-12.83,0.74c-5.34,0.85-10.53,2.56-15.55,4.2c-7.16,2.35-14.32,4.7-21.48,7.05l-9.04,2.96
			c-5.77,1.89-10.57,3.49-15.38,5.49"/>
	</g>
	<path class="st1" d="M257.98,301.87l0.01,0.07C257.99,301.91,257.98,301.89,257.98,301.87z"/>
	<g>
		<path class="st1" d="M437.21,36.16L437.21,36.16L437.21,36.16z M437.74,35.6L437.74,35.6L437.74,35.6z"/>
	</g>
</g>
<g id="Layer_1">
	<g>
		<g>
			<g id="XMLID_00000087383527745336477660000015909414315782831744_" class="st2">
				<g>
					<g>
						
							<linearGradient id="SVGID_1_" gradientUnits="userSpaceOnUse" x1="548.5651" y1="18.2055" x2="623.691" y2="18.2055" gradientTransform="matrix(0.997 0.0768 -0.0768 0.997 30.399 3.4948)">
							<stop  offset="0" style="stop-color:#58C3B7"/>
							<stop  offset="1" style="stop-color:#426BB3"/>
						</linearGradient>
						<path class="st3" d="M575.26,72.65c2.17-0.37,68.37-11.74,75.64-12.07c0.01,0,0.02,0,0.03,0l0.61,0.08
							c-0.69,0.73-1.34,1.48-1.95,2.26l0.3,0.23c-10.38,8.8-24.84,11-38.45,10.81C599.38,73.79,587.28,72.01,575.26,72.65z"/>
					</g>
					<g>
						
							<linearGradient id="SVGID_00000028287082500970315330000011798641050390099622_" gradientUnits="userSpaceOnUse" x1="618.0847" y1="132.5839" x2="647.9745" y2="132.5839" gradientTransform="matrix(0.997 0.0768 -0.0768 0.997 30.399 3.4948)">
							<stop  offset="0" style="stop-color:#58C3B7"/>
							<stop  offset="1" style="stop-color:#426BB3"/>
						</linearGradient>
						<path style="fill:url(#SVGID_00000028287082500970315330000011798641050390099622_);" d="M666.22,186.11L666.22,186.11
							c-1.34,0.68-2.74,1.25-4.16,1.7c-8.24,2.61-17.11,2-25.72,1.25c0.17,0.01,0.06-0.3-0.25-0.88c0.33-2.7,4.14-10.73,4.14-10.73
							L666.22,186.11z"/>
					</g>
					<g>
						
							<linearGradient id="SVGID_00000116192911809414680000000003648658257721975440_" gradientUnits="userSpaceOnUse" x1="548.8952" y1="132.6644" x2="618.4004" y2="132.6644" gradientTransform="matrix(0.997 0.0768 -0.0768 0.997 30.399 3.4948)">
							<stop  offset="0" style="stop-color:#58C3B7"/>
							<stop  offset="1" style="stop-color:#426BB3"/>
						</linearGradient>
						<path style="fill:url(#SVGID_00000116192911809414680000000003648658257721975440_);" d="M636.2,189
							c0.04,0.04,0.09,0.06,0.14,0.06c-23.08-2.03-46.11-4.98-69.23-6.29l38.9-7.77L636.2,189z"/>
					</g>
					<g>
						
							<linearGradient id="SVGID_00000134213435429975577450000008642476228696983463_" gradientUnits="userSpaceOnUse" x1="376.0262" y1="74.9988" x2="428.7073" y2="74.9988" gradientTransform="matrix(0.997 0.0768 -0.0768 0.997 30.399 3.4948)">
							<stop  offset="0" style="stop-color:#58C3B7"/>
							<stop  offset="1" style="stop-color:#426BB3"/>
						</linearGradient>
						<path style="fill:url(#SVGID_00000134213435429975577450000008642476228696983463_);" d="M399.26,111.03
							c7.78-1.19,52.49-14.68,54-15.13c-2.95,1.23-5.85,2.59-8.65,4.16c-3.78,2.13-7.44,4.71-9.83,8.34
							c-2.38,3.63-3.26,8.49-1.33,12.37c1.03,2.07,2.65,3.58,4.6,4.69C438.05,125.46,405.78,112.47,399.26,111.03z"/>
					</g>
					<g>
						
							<linearGradient id="SVGID_00000127737632287056147170000006445326185818326430_" gradientUnits="userSpaceOnUse" x1="544.5858" y1="189.717" x2="602.7763" y2="189.717" gradientTransform="matrix(0.997 0.0768 -0.0768 0.997 30.399 3.4948)">
							<stop  offset="0" style="stop-color:#58C3B7"/>
							<stop  offset="1" style="stop-color:#426BB3"/>
						</linearGradient>
						<path style="fill:url(#SVGID_00000127737632287056147170000006445326185818326430_);" d="M595.77,235.13l21.08,3.61l0,0.01
							c-9.79,4.66-20.95,5.89-31.8,7.02c-9.12,0.96-18.23,2.41-27.13,0.23l16.79-8.63l19.57-12.31L595.77,235.13z"/>
					</g>
					<g>
						
							<linearGradient id="SVGID_00000129174113730573361970000008841560454266785687_" gradientUnits="userSpaceOnUse" x1="194.7909" y1="45.3376" x2="318.5738" y2="45.3376" gradientTransform="matrix(0.997 0.0768 -0.0768 0.997 30.399 3.4948)">
							<stop  offset="0" style="stop-color:#58C3B7"/>
							<stop  offset="1" style="stop-color:#426BB3"/>
						</linearGradient>
						<path style="fill:url(#SVGID_00000129174113730573361970000008841560454266785687_);" d="M346.43,48.81L219.26,88l2.41-3.13
							c5.86-4.14,11.72-8.27,17.57-12.39c4.31-3.05,8.64-6.1,13.33-8.5c12.17-6.21,26.1-7.76,39.7-9.2
							c7.39-0.79,14.8-1.57,22.19-2.35C325.12,51.3,335.78,50.11,346.43,48.81z"/>
					</g>
					<g>
						
							<linearGradient id="SVGID_00000169537396481937580270000016626881644607469979_" gradientUnits="userSpaceOnUse" x1="461.5278" y1="198.7578" x2="544.5858" y2="198.7578" gradientTransform="matrix(0.997 0.0768 -0.0768 0.997 30.399 3.4948)">
							<stop  offset="0" style="stop-color:#58C3B7"/>
							<stop  offset="1" style="stop-color:#426BB3"/>
						</linearGradient>
						<path style="fill:url(#SVGID_00000169537396481937580270000016626881644607469979_);" d="M515.2,226.34L557.93,246
							l-66.02,6.19l-16.15-20.99c1.26,0.55,17.65,8.14,17.65,8.14L515.2,226.34z"/>
					</g>
					<g>
						
							<linearGradient id="SVGID_00000167354514454389726680000009609103003426264457_" gradientUnits="userSpaceOnUse" x1="529.1685" y1="213.5443" x2="545.8945" y2="213.5443" gradientTransform="matrix(0.997 0.0768 -0.0768 0.997 30.399 3.4948)">
							<stop  offset="0" style="stop-color:#58C3B7"/>
							<stop  offset="1" style="stop-color:#426BB3"/>
						</linearGradient>
						<path style="fill:url(#SVGID_00000167354514454389726680000009609103003426264457_);" d="M540.75,268.28L557.93,246
							c2.23,2.63,0.56,6.66-1.47,9.44c-4.11,5.65-9.28,10.15-15.08,13.84L540.75,268.28z"/>
					</g>
					<g>
						
							<linearGradient id="SVGID_00000148662895224877150040000009521854285655506087_" gradientUnits="userSpaceOnUse" x1="430.3551" y1="136.4293" x2="548.8952" y2="136.4293" gradientTransform="matrix(0.997 0.0768 -0.0768 0.997 30.399 3.4948)">
							<stop  offset="0" style="stop-color:#58C3B7"/>
							<stop  offset="1" style="stop-color:#426BB3"/>
						</linearGradient>
						<path style="fill:url(#SVGID_00000148662895224877150040000009521854285655506087_);" d="M448.54,178.72l71.39-7.53
							c1.32,1.02,47.19,11.58,47.19,11.58c-7.94-0.45-15.89-0.72-23.85-0.68c-17.53,0.08-35.08,1.61-52.58,0.48
							c-10.82-0.7-21.55-2.42-32.34-3.52C455.16,178.71,451.8,178.5,448.54,178.72z"/>
					</g>
					<g>
						
							<linearGradient id="SVGID_00000121968524637455566000000000488312142441718675_" gradientUnits="userSpaceOnUse" x1="449.9712" y1="240.6108" x2="529.8754" y2="240.6108" gradientTransform="matrix(0.997 0.0768 -0.0768 0.997 30.399 3.4948)">
							<stop  offset="0" style="stop-color:#58C3B7"/>
							<stop  offset="1" style="stop-color:#426BB3"/>
						</linearGradient>
						<path style="fill:url(#SVGID_00000121968524637455566000000000488312142441718675_);" d="M535.42,267.11l5.33,1.17l0.63,1
							c-11.39,7.26-25.23,11.44-38.43,15.17c-13.16,3.72-26.36,7.45-39.89,9.45c-1.25,0.18-2.5,0.36-3.75,0.51L535.42,267.11z"/>
					</g>
					<g>
						
							<linearGradient id="SVGID_00000137814746300504076970000005407483532297013667_" gradientUnits="userSpaceOnUse" x1="360.3747" y1="199.7716" x2="479.237" y2="199.7716" gradientTransform="matrix(0.997 0.0768 -0.0768 0.997 30.399 3.4948)">
							<stop  offset="0" style="stop-color:#58C3B7"/>
							<stop  offset="1" style="stop-color:#426BB3"/>
						</linearGradient>
						<path style="fill:url(#SVGID_00000137814746300504076970000005407483532297013667_);" d="M475.76,231.2l16.15,20.99
							l-108.63-13.77l-7.92-20.81C375.36,217.61,474.5,230.65,475.76,231.2z"/>
					</g>
					<g>
						
							<linearGradient id="SVGID_00000042007490008433586640000003700480411180437146_" gradientUnits="userSpaceOnUse" x1="327.6306" y1="208.3096" x2="479.237" y2="208.3096" gradientTransform="matrix(0.997 0.0768 -0.0768 0.997 30.399 3.4948)">
							<stop  offset="0" style="stop-color:#58C3B7"/>
							<stop  offset="1" style="stop-color:#426BB3"/>
						</linearGradient>
						<polygon style="fill:url(#SVGID_00000042007490008433586640000003700480411180437146_);" points="442.47,248.78 
							385.81,248.21 339.93,257.62 342.06,223.49 375.36,217.61 383.28,238.42 491.91,252.19 452.69,249.49 						"/>
					</g>
					<g>
						
							<linearGradient id="SVGID_00000114036845103113969390000012772052722337988743_" gradientUnits="userSpaceOnUse" x1="376.3532" y1="257.1482" x2="449.9317" y2="257.1482" gradientTransform="matrix(0.997 0.0768 -0.0768 0.997 30.399 3.4948)">
							<stop  offset="0" style="stop-color:#58C3B7"/>
							<stop  offset="1" style="stop-color:#426BB3"/>
						</linearGradient>
						<path style="fill:url(#SVGID_00000114036845103113969390000012772052722337988743_);" d="M453.52,282.92l5.74,11.5
							c-13.97,1.75-28.11,1.84-42.18,2.6c-10.71,0.57-21.38,1.52-32.03,2.74l2.63-16.31C414.87,283.37,452.5,283.2,453.52,282.92z"
							/>
					</g>
					<g>
						
							<linearGradient id="SVGID_00000072253945452022248190000016208136082638668968_" gradientUnits="userSpaceOnUse" x1="294.6855" y1="258.4442" x2="376.34" y2="258.4442" gradientTransform="matrix(0.997 0.0768 -0.0768 0.997 30.399 3.4948)">
							<stop  offset="0" style="stop-color:#58C3B7"/>
							<stop  offset="1" style="stop-color:#426BB3"/>
						</linearGradient>
						<path style="fill:url(#SVGID_00000072253945452022248190000016208136082638668968_);" d="M339.93,257.62l20.15,25.89
							l24.96,16.25c-27.75,3.17-55.32,8.12-82.88,12.77L339.93,257.62z"/>
					</g>
					<g>
						
							<linearGradient id="SVGID_00000169560000025024004210000004901010576684286128_" gradientUnits="userSpaceOnUse" x1="205.5545" y1="289.6214" x2="294.6855" y2="289.6214" gradientTransform="matrix(0.997 0.0768 -0.0768 0.997 30.399 3.4948)">
							<stop  offset="0" style="stop-color:#58C3B7"/>
							<stop  offset="1" style="stop-color:#426BB3"/>
						</linearGradient>
						<path style="fill:url(#SVGID_00000169560000025024004210000004901010576684286128_);" d="M302.17,312.54
							c-2.84,0.48-5.67,0.95-8.51,1.42c-20.79,3.43-41.76,6.59-62.82,6.06c-6.2-0.15-12.38-0.63-18.55-1.23
							c0,0,46.43-18.71,47.82-18.01l0.05,0.03C260.32,302.06,302.17,312.54,302.17,312.54z"/>
					</g>
					<g>
						
							<linearGradient id="SVGID_00000169545331441324985180000004354676540260132007_" gradientUnits="userSpaceOnUse" x1="132.4323" y1="265.451" x2="205.5545" y2="265.451" gradientTransform="matrix(0.997 0.0768 -0.0768 0.997 30.399 3.4948)">
							<stop  offset="0" style="stop-color:#58C3B7"/>
							<stop  offset="1" style="stop-color:#426BB3"/>
						</linearGradient>
						<polygon style="fill:url(#SVGID_00000169545331441324985180000004354676540260132007_);" points="199.23,247.67 
							212.29,318.79 140.46,299.22 						"/>
					</g>
					<g>
						
							<linearGradient id="SVGID_00000102543593134799714540000003268236460608184732_" gradientUnits="userSpaceOnUse" x1="105.6213" y1="302.5079" x2="205.5545" y2="302.5079" gradientTransform="matrix(0.997 0.0768 -0.0768 0.997 30.399 3.4948)">
							<stop  offset="0" style="stop-color:#58C3B7"/>
							<stop  offset="1" style="stop-color:#426BB3"/>
						</linearGradient>
						<path style="fill:url(#SVGID_00000102543593134799714540000003268236460608184732_);" d="M212.29,318.79
							c-15.41-1.48-30.78-3.72-46.26-3.62c-18.73,0.11-40.63,2.41-54.78,14.11l29.2-30.06L212.29,318.79z"/>
					</g>
				</g>
			</g>
			<g id="XMLID_00000067195424636543954710000008185217743526301879_">
				<g>
					<g>
						
							<linearGradient id="SVGID_00000011033542168591885140000000947031799652086169_" gradientUnits="userSpaceOnUse" x1="-4.4304" y1="221.8758" x2="612.4133" y2="221.8758" gradientTransform="matrix(0.997 0.0768 -0.0768 0.997 30.399 3.4948)">
							<stop  offset="0" style="stop-color:#58C3B7"/>
							<stop  offset="1" style="stop-color:#426BB3"/>
						</linearGradient>
						<path style="fill:url(#SVGID_00000011033542168591885140000000947031799652086169_);" d="M64.62,319.06
							c-6.22-5.06-12.63-11.48-19.04-19.61c-9.08-11.52-16.58-24.34-22.3-38.12c-7.02-16.85-11.13-34.51-12.22-52.47
							c-1.14-18.78,2.8-32.37,11.73-40.41l0.11-0.1l0.15,0c7.64-0.05,13.87-3.34,19.47-6.89c1.84-1.17,3.7-2.44,5.5-3.66
							c5.27-3.59,10.72-7.3,16.92-9.51c4.78-1.7,9.9-2.36,14.85-3c1.25-0.16,2.5-0.32,3.74-0.5c4.4-0.63,8.9-1.49,13.39-2.56
							c12.13-2.86,24.86-7.36,38.9-13.74l0.33,0.73c-14.1,6.4-26.87,10.91-39.05,13.79c-4.51,1.07-9.04,1.94-13.46,2.57
							c-1.25,0.18-2.5,0.34-3.75,0.5c-4.91,0.63-9.99,1.29-14.69,2.96c-6.1,2.18-11.51,5.86-16.74,9.42
							c-1.81,1.23-3.67,2.5-5.53,3.68c-5.39,3.41-11.94,6.91-19.74,7.01c-8.66,7.88-12.48,21.22-11.36,39.66
							c1.09,17.87,5.18,35.44,12.16,52.21c5.69,13.71,13.16,26.48,22.19,37.94c20.96,26.61,41.98,34.76,55.92,36.91l0.1,0.02
							l0.32,0.24c1.72-2.18,3.7-4.2,5.88-5.99c15.16-12.53,38.67-14.11,55.03-14.2c11.7-0.07,23.52,1.21,34.95,2.44
							c3.72,0.4,7.57,0.82,11.35,1.18c7.24,0.7,13.12,1.09,18.52,1.23c20.93,0.52,41.62-2.57,62.74-6.06
							c2.84-0.47,5.66-0.94,8.51-1.42c3.91-0.66,7.81-1.32,11.72-1.99c23.28-3.96,47.35-8.06,71.18-10.79
							c11.39-1.31,21.87-2.2,32.07-2.75c4.05-0.22,8.18-0.39,12.17-0.55c9.86-0.4,20.05-0.81,29.98-2.05
							c1.3-0.15,2.54-0.33,3.79-0.51c13.45-1.99,26.79-5.75,39.68-9.4l0.16-0.04c13.82-3.9,27.14-8,38.32-15.12
							c6.23-3.96,11.13-8.46,14.97-13.74c0.98-1.35,3.99-5.98,1.48-8.95l-0.79-0.94l1.19,0.29c7.76,1.9,15.88,1,23.73,0.12
							c1.09-0.12,2.17-0.24,3.26-0.36c10.2-1.06,21.75-2.27,31.67-6.99c0.96-0.45,1.88-0.93,2.82-1.46c3.88-2.2,8.7-5.94,9.65-11.33
							c0.77-4.33-1.12-9.2-5.18-13.36c-0.45-0.46-0.95-0.94-1.53-1.45c-7.72-6.84-18.09-8.74-25.44-9.15
							c-7.05-0.39-14.22,0.33-21.15,1.02c-2.84,0.28-5.77,0.58-8.67,0.79c-7.24,0.53-15.11,0.63-24.06,0.31l0.03-0.8
							c8.92,0.32,16.76,0.22,23.97-0.31c2.88-0.21,5.81-0.51,8.65-0.79c6.96-0.7,14.17-1.42,21.28-1.02
							c7.48,0.42,18.03,2.39,25.92,9.35c0.6,0.53,1.12,1.02,1.58,1.5c4.24,4.35,6.21,9.47,5.39,14.06
							c-1.01,5.69-6.02,9.6-10.04,11.88c-0.95,0.54-1.89,1.02-2.87,1.49c-10.04,4.78-21.67,5.99-31.93,7.06
							c-1.09,0.11-2.17,0.24-3.26,0.36c-7.59,0.85-15.42,1.73-23.01,0.09c1.77,3.35-1.06,7.71-2.04,9.06
							c-3.91,5.36-8.88,9.93-15.19,13.94c-11.27,7.19-24.66,11.3-38.53,15.22l-0.16,0.05c-12.92,3.65-26.28,7.42-39.78,9.42
							c-1.25,0.18-2.51,0.36-3.76,0.51c-10,1.25-20.21,1.66-30.09,2.06c-3.99,0.16-8.11,0.33-12.15,0.55
							c-10.18,0.54-20.65,1.44-32.01,2.74c-23.82,2.73-47.88,6.82-71.15,10.78c-3.91,0.66-7.82,1.33-11.72,1.99
							c-2.84,0.48-5.67,0.95-8.51,1.42c-21.16,3.5-41.89,6.59-62.9,6.07c-5.42-0.14-11.32-0.53-18.58-1.23
							c-3.79-0.36-7.64-0.78-11.36-1.18c-11.41-1.23-23.21-2.51-34.86-2.44c-16.24,0.09-39.57,1.65-54.53,14.02
							c-2.24,1.85-4.26,3.92-6,6.18l-0.24,0.32l-0.78-0.61C92.11,335.11,78.87,330.65,64.62,319.06z"/>
					</g>
					<g>
						
							<linearGradient id="SVGID_00000111167787329371691380000013875557267098556848_" gradientUnits="userSpaceOnUse" x1="114.8195" y1="69.5369" x2="316.1868" y2="69.5369" gradientTransform="matrix(0.997 0.0768 -0.0768 0.997 30.399 3.4948)">
							<stop  offset="0" style="stop-color:#58C3B7"/>
							<stop  offset="1" style="stop-color:#426BB3"/>
						</linearGradient>
						<path style="fill:url(#SVGID_00000111167787329371691380000013875557267098556848_);" d="M136.27,129.18l-0.33-0.73
							c4.07-1.85,8.28-3.86,12.51-5.99c2.72-1.37,5.51-2.8,8.53-4.37c6.3-3.29,12.65-6.75,18.8-10.09
							c10.99-5.98,22.36-12.15,33.84-17.64c2.39-1.14,4.7-1.68,6.89-1.62l2.32-3.01l0.05-0.03c3.63-2.56,7.27-5.13,10.9-7.69
							l6.67-4.7c4.02-2.85,8.58-6.07,13.38-8.53c12.41-6.34,26.98-7.88,39.84-9.24l22.19-2.35c11.82-1.24,22.27-2.43,31.97-3.62
							l0.1,0.79c-9.7,1.19-20.16,2.38-31.98,3.62l-22.19,2.35c-12.79,1.35-27.28,2.89-39.56,9.16c-4.74,2.43-9.08,5.5-13.28,8.47
							l-6.67,4.7c-3.62,2.55-7.23,5.1-10.85,7.65l-2.5,3.24l-0.21-0.01c-2.11-0.1-4.37,0.42-6.72,1.53
							c-11.46,5.48-22.82,11.65-33.8,17.63c-6.15,3.34-12.5,6.8-18.81,10.09c-3.02,1.58-5.82,3.01-8.54,4.38
							C144.57,125.31,140.35,127.33,136.27,129.18z"/>
					</g>
					<g>
						
							<linearGradient id="SVGID_00000164515333183805391520000008682389466208989101_" gradientUnits="userSpaceOnUse" x1="316.0426" y1="0.7383" x2="629.4177" y2="0.7383" gradientTransform="matrix(0.997 0.0768 -0.0768 0.997 30.399 3.4948)">
							<stop  offset="0" style="stop-color:#58C3B7"/>
							<stop  offset="1" style="stop-color:#426BB3"/>
						</linearGradient>
						<path style="fill:url(#SVGID_00000164515333183805391520000008682389466208989101_);" d="M343.93,50.36l-0.1-0.79
							c26.75-3.26,50.04-6.87,71.2-11.03l0.85-1.11l0.09-0.04c18.63-8.2,37.25-16.39,55.88-24.58c2.18-0.97,4.91-2.18,7.71-2.2
							c2.53-0.02,5.72,1.25,6.76,4.06c0.39,1.06,0.44,2.23,0.48,3.36c0.07,1.64,0.13,3.2,1.21,4.18c0.51,0.46,1.13,0.72,1.91,0.78
							c1.23,0.13,2.69-0.23,3.97-0.55l0.3-0.07c6.9-1.71,14.08-0.59,21.04,0.49c2.44,0.38,4.96,0.77,7.43,1.03
							c6.23,0.66,12.62,0.53,18.8,0.4l28.95-0.62c12.85-0.28,25.69-0.55,38.54-0.82c6.26-0.13,12.72-0.27,19,1.14
							c5.84,1.31,11.2,3.92,15.67,6.3c0.89,0.47,1.77,0.95,2.65,1.43l0.12,0.07c4.7,2.57,9.84,5.76,11.45,11.02
							c1.13,3.69,0.31,8.09-2.26,12.08c-1.28,1.98-2.98,3.72-4.63,5.41c-0.57,0.59-1.15,1.18-1.71,1.78
							c-0.67,0.71-0.8,1.58-1.27,2.17l-0.09,0.1l-0.38,0.32c-8.87,7.52-21.54,11.09-38.65,10.84c-4.83-0.07-9.74-0.4-14.49-0.72
							c-7.11-0.48-14.47-0.97-21.66-0.59l-0.04-0.8c7.24-0.38,14.62,0.11,21.76,0.59c4.74,0.32,9.64,0.65,14.45,0.72
							c16.67,0.24,29.05-3.16,37.81-10.4l0,0l0.57-0.52c0.54-0.7,0.62-1.4,1.42-2.25c0.56-0.6,1.14-1.2,1.72-1.79
							c1.62-1.66,3.29-3.37,4.53-5.28c2.44-3.79,3.23-7.95,2.17-11.42c-1.52-4.98-6.52-8.06-11.08-10.55l-0.12-0.07
							c-0.88-0.48-1.75-0.96-2.64-1.43c-4.43-2.35-9.73-4.93-15.47-6.23c-6.18-1.39-12.6-1.25-18.81-1.12
							c-12.85,0.27-25.69,0.55-38.54,0.83l-28.89,0.62c-6.27,0.13-12.69,0.26-18.96-0.41c-2.48-0.26-5.02-0.66-7.47-1.04
							c-6.87-1.07-13.98-2.17-20.72-0.5l-0.3,0.07c-1.35,0.33-2.88,0.71-4.24,0.57c-0.94-0.08-1.74-0.41-2.37-0.98
							c-1.33-1.21-1.4-3-1.47-4.74c-0.04-1.07-0.09-2.18-0.43-3.12c-0.9-2.45-3.74-3.55-6-3.54c-2.64,0.02-5.17,1.14-7.4,2.13
							c-18.6,8.17-37.19,16.35-55.79,24.54l-0.91,1.18l-0.15,0.03C394.11,43.47,370.76,47.09,343.93,50.36z"/>
					</g>
					<g>
						
							<linearGradient id="SVGID_00000150088470740242819280000017785068772266357925_" gradientUnits="userSpaceOnUse" x1="426.0919" y1="44.8704" x2="544.1239" y2="44.8704" gradientTransform="matrix(0.997 0.0768 -0.0768 0.997 30.399 3.4948)">
							<stop  offset="0" style="stop-color:#58C3B7"/>
							<stop  offset="1" style="stop-color:#426BB3"/>
						</linearGradient>
						<path style="fill:url(#SVGID_00000150088470740242819280000017785068772266357925_);" d="M450.88,97.42l-0.31-0.74
							c4.84-2.01,9.66-3.62,15.44-5.51l9.04-2.96c7.16-2.35,14.32-4.69,21.48-7.05c5.05-1.66,10.28-3.37,15.67-4.23
							c3.76-0.6,7.76-0.84,12.97-0.75c2.59,0.04,5.23,0.15,7.78,0.27c5.42,0.24,11.02,0.48,16.48,0.01
							c3.37-0.29,6.76-0.86,10.05-1.41c2.8-0.47,5.69-0.95,8.57-1.26c0.84-0.1,1.7-0.17,2.55-0.24l0.06,0.79
							c-0.84,0.07-1.69,0.14-2.53,0.24c-2.85,0.31-5.74,0.79-8.53,1.26c-3.3,0.55-6.71,1.12-10.11,1.42
							c-5.51,0.48-11.14,0.23-16.58,0c-2.55-0.11-5.18-0.23-7.76-0.27c-5.17-0.09-9.12,0.14-12.83,0.74
							c-5.34,0.85-10.53,2.56-15.55,4.2c-7.16,2.35-14.32,4.7-21.48,7.05l-9.04,2.96C460.5,93.82,455.7,95.42,450.88,97.42z"/>
					</g>
					<g>
						
							<linearGradient id="SVGID_00000183241765896642173560000001391494942940115334_" gradientUnits="userSpaceOnUse" x1="406.5607" y1="102.8265" x2="657.5536" y2="102.8265" gradientTransform="matrix(0.997 0.0768 -0.0768 0.997 30.399 3.4948)">
							<stop  offset="0" style="stop-color:#58C3B7"/>
							<stop  offset="1" style="stop-color:#426BB3"/>
						</linearGradient>
						<path style="fill:url(#SVGID_00000183241765896642173560000001391494942940115334_);" d="M443.33,180.56l-0.13-0.79
							c0.92-0.15,1.84-0.24,2.75-0.29c3.62-0.25,7.37,0.06,9.87,0.32c4.04,0.42,8.14,0.92,12.11,1.42
							c6.62,0.82,13.46,1.67,20.21,2.11c11.32,0.73,22.86,0.34,34.03-0.03c6.07-0.2,12.35-0.42,18.52-0.44
							c7.39-0.04,15.2,0.19,23.88,0.68c14.81,0.84,29.82,2.38,44.35,3.86c8.16,0.83,16.59,1.7,24.89,2.43
							c9.29,0.81,17.63,1.28,25.57-1.23c1.4-0.44,2.78-1,4.1-1.67c7.01-3.49,11.74-9.37,12.66-15.73c0.52-3.6-0.17-7.42-2-11.04
							c-2.27-4.54-6.31-8.67-11.08-11.33c-3.34-1.86-7.14-3.28-11.62-4.31c-5.06-1.19-10.48-1.78-15.26-2.29
							c-2.55-0.28-5.1-0.55-7.65-0.83c-2.42-0.26-4.85-0.52-7.27-0.79c-4.59-0.49-9.18-0.99-13.78-1.49c-4.59-0.5-9.18-1-13.78-1.49
							l-51.29-5.56c-11.58-1.26-23.51-2.55-35.28-2.96c-8.42-0.31-15.98-0.15-23.11,0.49l-0.88,0.11
							c-11.54,1.39-23.21,0.93-35.15,0.28c-5.53-0.29-9.7-1.27-12.73-3c-2.16-1.23-3.76-2.86-4.76-4.86
							c-1.84-3.69-1.31-8.7,1.35-12.77c2.06-3.14,5.14-5.75,9.97-8.47c2.6-1.46,5.44-2.83,8.7-4.19l0.31,0.74
							c-3.23,1.34-6.04,2.7-8.61,4.14c-4.71,2.65-7.7,5.19-9.69,8.21c-2.51,3.83-3.02,8.53-1.31,11.97
							c0.93,1.85,2.42,3.37,4.44,4.52c2.92,1.66,6.97,2.61,12.37,2.9c11.91,0.65,23.54,1.11,35.01-0.27l0.89-0.11
							c7.17-0.64,14.77-0.81,23.22-0.49c11.79,0.42,23.74,1.71,35.29,2.96l51.33,5.56c4.59,0.49,9.18,0.99,13.78,1.49
							c4.59,0.5,9.18,1,13.78,1.49c2.42,0.26,4.85,0.53,7.27,0.79c2.55,0.28,5.1,0.55,7.66,0.83c4.8,0.52,10.25,1.11,15.36,2.31
							c4.55,1.05,8.42,2.49,11.83,4.39c4.9,2.74,9.06,6.99,11.4,11.67c1.9,3.76,2.62,7.74,2.07,11.51
							c-0.96,6.62-5.85,12.73-13.09,16.33c-1.36,0.68-2.78,1.26-4.22,1.72c-8.08,2.56-16.5,2.09-25.88,1.27
							c-8.3-0.73-16.74-1.59-24.9-2.43c-14.51-1.49-29.52-3.02-44.31-3.86c-8.66-0.49-16.45-0.72-23.83-0.68
							c-6.16,0.03-12.44,0.24-18.5,0.44c-11.18,0.38-22.75,0.77-34.11,0.03c-6.78-0.44-13.63-1.29-20.26-2.11
							c-3.96-0.49-8.06-1-12.09-1.41c-2.47-0.25-6.17-0.56-9.74-0.32C445.12,180.32,444.22,180.42,443.33,180.56z"/>
					</g>
					<g>
						
							<linearGradient id="SVGID_00000007394821955136714540000014265553926482293401_" gradientUnits="userSpaceOnUse" x1="422.6203" y1="144.8022" x2="425.2789" y2="144.8022" gradientTransform="matrix(0.997 0.0768 -0.0768 0.997 30.399 3.4948)">
							<stop  offset="0" style="stop-color:#58C3B7"/>
							<stop  offset="1" style="stop-color:#426BB3"/>
						</linearGradient>
						<path style="fill:url(#SVGID_00000007394821955136714540000014265553926482293401_);" d="M440.86,181.05l-0.2-0.77
							c0.77-0.2,1.6-0.36,2.52-0.51l0.12,0.79C442.41,180.7,441.61,180.86,440.86,181.05z"/>
					</g>
					<g>
						
							<linearGradient id="SVGID_00000108294020381658726200000004019302385999697321_" gradientUnits="userSpaceOnUse" x1="412.9919" y1="153.3682" x2="483.7993" y2="153.3682" gradientTransform="matrix(0.997 0.0768 -0.0768 0.997 30.399 3.4948)">
							<stop  offset="0" style="stop-color:#58C3B7"/>
							<stop  offset="1" style="stop-color:#426BB3"/>
						</linearGradient>
						<path style="fill:url(#SVGID_00000108294020381658726200000004019302385999697321_);" d="M433.16,194.73
							c-1.91-1.55-3.29-4.04-2.71-6.56c0.3-1.29,1.08-2.52,2.4-3.76c2.04-1.92,4.64-3.3,7.72-4.1l0.2,0.77
							c-2.95,0.77-5.43,2.08-7.37,3.91c-1.2,1.13-1.91,2.22-2.17,3.36c-0.61,2.63,1.29,5.25,3.48,6.48c2.4,1.34,5.23,1.58,7.97,1.8
							l57.71,4.66l-0.06,0.79l-57.71-4.66c-2.69-0.22-5.75-0.47-8.3-1.9C433.93,195.3,433.53,195.03,433.16,194.73z"/>
					</g>
					<g>
						
							<linearGradient id="SVGID_00000034781675596820311060000001881144481205069456_" gradientUnits="userSpaceOnUse" x1="4.9471" y1="174.4533" x2="331.603" y2="174.4533" gradientTransform="matrix(0.997 0.0768 -0.0768 0.997 30.399 3.4948)">
							<stop  offset="0" style="stop-color:#58C3B7"/>
							<stop  offset="1" style="stop-color:#426BB3"/>
						</linearGradient>
						<path style="fill:url(#SVGID_00000034781675596820311060000001881144481205069456_);" d="M102.64,337.24l-0.29-0.27
							l-79.09-75.62l0-0.17l-0.6-92.71l113.21-39.98l80.66-39.69l127.26-39.22l1.1-0.11l-10.91,11.78l-5.15,25.29l26.21,20.21
							l-27.7,20.51l-7.52,43.52l23.11,10.45l-16.43,15.36l-7.19,31.64l18.54,30.57L337.7,259l-37.92,55.15l-0.27-0.07
							c-0.1-0.03-10.58-2.65-20.95-5.4c-17.62-4.67-20.64-5.85-21.22-6.39c-1.98,0.01-29.4,10.75-47.46,18.02l-0.12,0.05
							l-71.74-19.54L102.64,337.24z M24.05,261l78.56,75.12l35.16-36.19l0.23,0.06l71.7,19.53c13.74-5.53,45.05-18.02,47.87-17.97
							l0-0.01l0.34,0.02l0.05,0.24c1.63,1.18,25.49,7.44,41.47,11.45l37.46-54.48l-18.44-30.41l7.32-32.19l0.09-0.08l15.65-14.63
							l-22.58-10.22l7.67-44.44l27.11-20.07l-25.77-19.87l5.3-26l9.35-10.09L216.82,89.53l-80.63,39.68L23.46,169.03L24.05,261z
							 M257.98,301.87l0.01,0.07C257.99,301.91,257.98,301.89,257.98,301.87z"/>
					</g>
					<g>
						
							<linearGradient id="SVGID_00000021093593954081152570000001651657762939433890_" gradientUnits="userSpaceOnUse" x1="620.5615" y1="10.6151" x2="621.8006" y2="10.6151" gradientTransform="matrix(0.997 0.0768 -0.0768 0.997 30.399 3.4948)">
							<stop  offset="0" style="stop-color:#58C3B7"/>
							<stop  offset="1" style="stop-color:#426BB3"/>
						</linearGradient>
						<path style="fill:url(#SVGID_00000021093593954081152570000001651657762939433890_);" d="M648.38,62.13l-0.04-0.8
							c0.57-0.03,0.72,0.03,0.82,0.08l0.4,0.23l-0.27,0.42l-0.34-0.26l0.02,0.02l-0.04,0.05l-0.1,0.27
							C648.83,62.14,648.73,62.11,648.38,62.13z M648.94,61.79l-0.29-0.22L648.94,61.79z"/>
					</g>
					<g>
						
							<linearGradient id="SVGID_00000156546133246269095730000002107650590883910837_" gradientUnits="userSpaceOnUse" x1="545.9758" y1="19.5649" x2="620.6348" y2="19.5649" gradientTransform="matrix(0.997 0.0768 -0.0768 0.997 30.399 3.4948)">
							<stop  offset="0" style="stop-color:#58C3B7"/>
							<stop  offset="1" style="stop-color:#426BB3"/>
						</linearGradient>
						<path style="fill:url(#SVGID_00000156546133246269095730000002107650590883910837_);" d="M572.69,74.21l-0.08-0.79l0.01,0
							l0.7-0.12c15.96-2.73,68.55-11.66,75-11.96l0.04,0.8c-6.41,0.3-58.95,9.22-74.9,11.95L572.69,74.21z"/>
					</g>
					<g>
						
							<linearGradient id="SVGID_00000049197156849186237800000001075723050502188701_" gradientUnits="userSpaceOnUse" x1="545.8801" y1="4.0301" x2="620.6091" y2="4.0301" gradientTransform="matrix(0.997 0.0768 -0.0768 0.997 30.399 3.4948)">
							<stop  offset="0" style="stop-color:#58C3B7"/>
							<stop  offset="1" style="stop-color:#426BB3"/>
						</linearGradient>
						<path style="fill:url(#SVGID_00000049197156849186237800000001075723050502188701_);" d="M572.81,74.18l-0.3-0.74l39.62-16.31
							l-33.88-8.08l33.91-21.62l1.64,29.26l34.59,4.65l-0.11,0.79l-34.81-4.68L572.81,74.18z M611.44,28.84l-31.18,19.88l32.73,7.81
							L611.44,28.84z"/>
					</g>
					<g>
						
							<linearGradient id="SVGID_00000021106171349581944250000000546724485371619752_" gradientUnits="userSpaceOnUse" x1="620.2849" y1="10.6386" x2="620.9402" y2="10.6386" gradientTransform="matrix(0.997 0.0768 -0.0768 0.997 30.399 3.4948)">
							<stop  offset="0" style="stop-color:#58C3B7"/>
							<stop  offset="1" style="stop-color:#426BB3"/>
						</linearGradient>
						<polygon style="fill:url(#SVGID_00000021106171349581944250000000546724485371619752_);" points="648.31,62.13 648.34,61.72 
							648.06,61.48 648.33,61.71 648.28,61.34 648.39,61.34 648.35,61.72 648.67,61.98 648.39,62.1 648.39,62.13 648.39,62.1 						
							"/>
					</g>
					<g>
						
							<linearGradient id="SVGID_00000003068301069942297940000002176961363184965776_" gradientUnits="userSpaceOnUse" x1="388.2538" y1="7.8504" x2="621.7185" y2="7.8504" gradientTransform="matrix(0.997 0.0768 -0.0768 0.997 30.399 3.4948)">
							<stop  offset="0" style="stop-color:#58C3B7"/>
							<stop  offset="1" style="stop-color:#426BB3"/>
						</linearGradient>
						<path style="fill:url(#SVGID_00000003068301069942297940000002176961363184965776_);" d="M416.01,53.5l-0.04-0.25l0.4-0.06
							l-0.1-0.35c0.38-0.18,2.87-2.43,5.5-4.82c9.32-8.43,14.3-12.69,15.63-12.57c0.18,0.02,0.3,0.09,0.38,0.16
							c2.14,0.57,32.21-7.19,52.01-12.58l0.57-0.16l-3.2,26.78l25.29,27.26l59.89-3.48l6.51-24.57l-2.07-15.98l-7.24-9.29
							l73.94,7.24l0.06,0.29l5.83,30.64l0.06,0.51l-1.12-0.15l0.11-0.79l0.06,0.01l-5.67-29.78l-71.5-7l6.23,7.99l2.1,16.42
							l-0.09,0.35l-6.59,24.86l-2.29,0.13l-58.56,3.4l-0.13-0.14l-25.67-27.67l0.02-0.18l3.09-25.79
							c-2.63,0.71-13.92,3.76-25.19,6.64c-24.57,6.27-26.51,6.07-26.96,5.65c-1.45,0.15-10.23,8.08-14.97,12.37
							c-5.66,5.12-5.7,5.11-6.06,4.97L416.01,53.5z M437.21,36.16L437.21,36.16L437.21,36.16z M437.74,35.6L437.74,35.6L437.74,35.6
							z"/>
					</g>
					<g>
						
							<linearGradient id="SVGID_00000034780293088767999280000001649834201705473467_" gradientUnits="userSpaceOnUse" x1="369.8347" y1="90.2089" x2="427.5388" y2="90.2089" gradientTransform="matrix(0.997 0.0768 -0.0768 0.997 30.399 3.4948)">
							<stop  offset="0" style="stop-color:#58C3B7"/>
							<stop  offset="1" style="stop-color:#426BB3"/>
						</linearGradient>
						<path style="fill:url(#SVGID_00000034780293088767999280000001649834201705473467_);" d="M386.88,191.16l55.44-11.21
							l-21.91-16.89l1.88-24.55l12.47-11.74c-4.36-1.75-31.99-12.79-38.08-14.16c-0.93,0.14-1.2,0.08-1.38-0.08l-0.14-0.13
							l-0.01-0.24c0.01-0.15,0.08-0.27,0.2-0.36c0.19-0.14,0.49-0.19,1.36,0c6.98-1.11,41.6-11.42,52.98-14.84l-32.55-17.42
							l-0.01-0.23c-0.12-2.63-1.19-25.67-1.16-26.13l0.8,0.05c-0.01,0.53,0.74,16.99,1.15,25.82l34.07,18.23l-1.18,0.17l-0.34,0.11
							c-10.13,3.04-42.14,12.59-51.98,14.71c8.97,2.66,35.93,13.5,37.15,14l0.58,0.23l-13.15,12.38l-1.82,23.82l0.09,0.07
							l22.92,17.67l-0.93,0.13l-2.52,0.51l-48.44,9.79l42.2,3.92l-0.07,0.79L386.88,191.16z"/>
					</g>
					<g>
						
							<linearGradient id="SVGID_00000065038851950685052100000004688842611295213448_" gradientUnits="userSpaceOnUse" x1="324.4317" y1="120.5276" x2="654.6982" y2="120.5276" gradientTransform="matrix(0.997 0.0768 -0.0768 0.997 30.399 3.4948)">
							<stop  offset="0" style="stop-color:#58C3B7"/>
							<stop  offset="1" style="stop-color:#426BB3"/>
						</linearGradient>
						<path style="fill:url(#SVGID_00000065038851950685052100000004688842611295213448_);" d="M342.33,181.72l-0.2-0.77
							c0.77-0.2,76.86-20.13,78.92-18.46c0,0,0,0,0,0l0.17,0.41c0.01-0.14-0.06-0.24-0.1-0.26c0,0,0.02,0.02,0.09,0.04
							c4.28,1.45,64.79-1.37,74.8-1.85l-60.73-33.88l0.39-0.7l61.51,34.32l9.84-32.85l22.15,34.87l13.14-31.65l36.38,35.62
							c14.2-29.87,14.74-29.8,15.1-29.76c0.37,0.04,0.89,0.05,9.84,38.43l10-12.97l7.59-23.12l14.11,27.59
							c15.76-23.16,15.94-23.12,16.3-23.03c0.09,0.02,0.35,0.08,23.1,15.91l0.26,0.18l-0.12,0.29l-10.99,27.65l-26.01-8.67
							c-0.69,1.49-3.57,7.76-3.94,10.17c0.3,0.56,0.4,0.89,0.24,1.14l-0.13,0.2l-0.3,0.01c-0.08-0.01-0.26-0.03-0.41-0.19
							c-0.25-0.21-0.26-0.61-0.22-1c-0.93-1.66-3.58-5.46-7.87-11.3l-21.62-1.55l-0.02,0.02l-0.49-0.06l-0.01-0.03l-12-2.22
							l-12.11-6.49l-0.06,0.13l-0.3-0.29l-49.14-3.75l-0.18,0.44l-0.18-0.28l-11.76,8.78l-0.22-0.13l-19.83-11.12
							c-4.26,0.21-71.64,3.47-76.38,1.86c-0.23-0.08-0.38-0.19-0.46-0.33C416.39,162.55,348.58,180.06,342.33,181.72z
							 M420.43,162.84l0,0.03L420.43,162.84z M507.3,129.64l-9.39,31.35l19.42,10.89l11.39-8.51L507.3,129.64z M542.61,132.35
							l-12.77,30.76l47.93,3.66L542.61,132.35z M593.67,137.99c-1.76,2.94-9.24,18.41-14.32,29.09l12.09,6.47l11.48,2.1
							C599.67,161.71,594.85,141.6,593.67,137.99z M614,163.12l-9.78,12.69l20.41,1.47C620.12,171.16,615.27,164.78,614,163.12z
							 M626.3,178.2c3.52,4.79,5.88,8.17,7.05,10.05c0.74-2.78,2.96-7.67,3.71-9.28L626.3,178.2z M614.97,163.07
							c1.69,2.22,6.41,8.43,10.71,14.29l11.51,0.82c-0.8-4.48-1.77-9.29-2.16-10.28l-0.07-0.14
							C634.14,167.16,622.69,164.65,614.97,163.07z M621.4,141.23l-6.87,20.94c6.56,1.33,16.51,3.44,19.92,4.59L621.4,141.23z
							 M635.75,167.58c0.63,1.61,1.89,8.56,2.26,10.66l0.27,0.02l-0.06,0.12l25.2,8.4l10.59-26.66c-5.98-4.16-20.3-14.1-22.41-15.49
							C650.2,146.45,641.58,159.01,635.75,167.58z"/>
					</g>
					<g>
						
							<linearGradient id="SVGID_00000090278419027996954520000008600566172968308115_" gradientUnits="userSpaceOnUse" x1="324.2163" y1="78.284" x2="552.1957" y2="78.284" gradientTransform="matrix(0.997 0.0768 -0.0768 0.997 30.399 3.4948)">
							<stop  offset="0" style="stop-color:#58C3B7"/>
							<stop  offset="1" style="stop-color:#426BB3"/>
						</linearGradient>
						<polygon style="fill:url(#SVGID_00000090278419027996954520000008600566172968308115_);" points="341.9,181.1 394.81,112.47 
							352.9,106.94 417.37,78.92 486.66,49.39 486.74,49.39 580.67,48.83 580.68,49.62 579.17,49.64 486.82,50.18 417.68,79.65 
							355.85,106.53 396.29,111.87 342.53,181.58 						"/>
					</g>
					<g>
						
							<linearGradient id="SVGID_00000109025372136159322120000005311756409904926108_" gradientUnits="userSpaceOnUse" x1="425.1303" y1="136.3018" x2="616.0656" y2="136.3018" gradientTransform="matrix(0.997 0.0768 -0.0768 0.997 30.399 3.4948)">
							<stop  offset="0" style="stop-color:#58C3B7"/>
							<stop  offset="1" style="stop-color:#426BB3"/>
						</linearGradient>
						<path style="fill:url(#SVGID_00000109025372136159322120000005311756409904926108_);" d="M443.31,180.56l-0.1-0.79l2.72-0.28
							l71.55-7.54l0.13,0.1c1.21,0.77,28.71,7.28,46.95,11.48l38.94-7.78l30.44,14.11l-0.32,0.73l-0.14-0.06l-30.08-13.95
							l-38.85,7.76l-0.08-0.02c-4.59-1.06-43.97-10.14-47.17-11.56L443.31,180.56z"/>
					</g>
					<g>
						
							<linearGradient id="SVGID_00000025426353978149459850000007797426949683757996_" gradientUnits="userSpaceOnUse" x1="304.7805" y1="181.62" x2="604.425" y2="181.62" gradientTransform="matrix(0.997 0.0768 -0.0768 0.997 30.399 3.4948)">
							<stop  offset="0" style="stop-color:#58C3B7"/>
							<stop  offset="1" style="stop-color:#426BB3"/>
						</linearGradient>
						<path style="fill:url(#SVGID_00000025426353978149459850000007797426949683757996_);" d="M318.94,228.68l-0.14-0.78
							l54.04-9.53c10.15,1.34,99.24,13.07,100.51,13.63c1.19,0.52,15.54,7.17,17.47,8.06l21.71-12.96l0.12,0l47.79,1.9l11.73,9.05
							l18.69-11.76l-50.41-21.38c-9.15-0.33-18.45-1.08-27.44-1.8l-3.81-0.31c-2.96-0.24-5.92-0.48-8.88-0.72l0.06-0.79
							c2.96,0.24,5.92,0.47,8.88,0.72l3.81,0.31c9.01,0.72,18.32,1.47,27.48,1.8l0.13,0l0.07,0.05l50.72,21.51l6.05-16.5l23.07,2.1
							l-6.02,29.06l-21.74-3.72l-1.43-9.75l-19.29,12.14l-11.97-9.23l-47.42-1.89l-21.87,13.05l-0.19-0.09
							c-0.16-0.08-16.41-7.6-17.64-8.14c-1.57-0.5-66.22-9.08-100.24-13.56L318.94,228.68z M592.14,226.26l1.42,9.68l20.41,3.5
							l5.68-27.44l-21.57-1.96L592.14,226.26z"/>
					</g>
					<g>
						
							<linearGradient id="SVGID_00000121976131273204271080000005492330112592638358_" gradientUnits="userSpaceOnUse" x1="324.1463" y1="192.2419" x2="558.4098" y2="192.2419" gradientTransform="matrix(0.997 0.0768 -0.0768 0.997 30.399 3.4948)">
							<stop  offset="0" style="stop-color:#58C3B7"/>
							<stop  offset="1" style="stop-color:#426BB3"/>
						</linearGradient>
						<path style="fill:url(#SVGID_00000121976131273204271080000005492330112592638358_);" d="M336.94,259.27l0.03-0.52l4.87-77.76
							l0.47-0.04l47.94,9.78l-17.01,28.07l7.77,20.41l107.44,13.62l-15.76-20.49l0.22-0.25l27.57-31.13l12.47,26.23l42.17,19.41
							l4.76-17.12l-19.61-24.71l0.62-0.5l19.86,25.03l-4.75,17.09l15.98-8.21l0.36,0.71l-16.64,8.55l-0.03,0.1l-0.2,0.02l-0.1,0.05
							l-0.08-0.04l-65.19,6.11l0.14,0.19l-1.03-0.13l-49.34-3.4l-56.59-0.58L336.94,259.27z M342.59,181.82l-4.79,76.47l45.46-9.32
							l56.66,0.58L475.5,252l-95.07-12.05l-8.08-21.22l0.1-0.17l16.53-27.27L342.59,181.82z M473.72,232.38l15.81,20.56l64.32-6.04
							l-41.51-19.1l-12.08-25.4L473.72,232.38z"/>
					</g>
					<g>
						
							<linearGradient id="SVGID_00000166674906964702752820000012315111800152424860_" gradientUnits="userSpaceOnUse" x1="3.1349" y1="198.7447" x2="543.3774" y2="198.7447" gradientTransform="matrix(0.997 0.0768 -0.0768 0.997 30.399 3.4948)">
							<stop  offset="0" style="stop-color:#58C3B7"/>
							<stop  offset="1" style="stop-color:#426BB3"/>
						</linearGradient>
						<path style="fill:url(#SVGID_00000166674906964702752820000012315111800152424860_);" d="M102.27,336.85L21.07,165.48
							l62.75,82.33L94.72,142.6l0.56,0.39l67.95,48.23l30.07-56.92l-1.06-0.5l1.35-0.07l22.9-45.08l0.33,0.11l112.21,38.54
							l-133.59,7.12l131.68,61.96l-128.72,52.15l139.16,9.84l0.11,0.14l19.83,25.48l25.82-35.43l5.7,12.74l61.23-11.1l23.19,24.16
							l15.71-21.46l0.24,0.04l40.57,6.02l26.73-12.91l-18.36,23.82l-5.47-1.2l-76.21,27.34l-0.27-0.18l-0.05-0.08l-5.62-11.25
							c-1.47,0.11-9.92,0.32-65.27,0.5l-2.64,16.13l-0.23,0.33l-25.2-16.41l-0.08,0l-0.08-0.1l-0.3-0.19l0.07-0.1l-19.86-25.52
							l-140.36-9.92l-58.92,51.68l-53.8-51.55l-0.05,0.03l-0.33-0.43l-58.66-76.95l77.94,164.49L102.27,336.85z M84.74,248.89
							l53.17,50.94l58.25-51.09l-32.91-56.36L84.74,248.89z M95.37,144.04L84.61,248.01l78.07-56.19L95.37,144.04z M163.89,191.93
							l32.94,56.41l128.3-51.99l-131.12-61.7l-30.14,57.04l0.17,0.12L163.89,191.93z M384.65,285.02
							c-12.24,0.03-22.29,0.05-25.79,0.05l23.34,15.2L384.65,285.02z M383.17,250.16l-24.86,34.12c2.89-0.01,13.45-0.02,26.48-0.05
							l3.61-22.4L383.17,250.16z M216.9,89.64l-22.38,44.05l130.38-6.95L216.9,89.64z M389.12,262.3l-3.53,21.91
							c42.39-0.14,58.38-0.3,63.37-0.43L389.12,262.3z M449.99,251.08l-59.65,10.81l60.64,21.77c2.01-0.65,18.61-7.48,21.83-8.81
							L449.99,251.08z M451.52,284.31l5.38,10.78l75.49-27.08c-0.68-3.67-1.71-7.68-2.3-8.21l-0.01,0
							c-1.15,0.49-8.63,4.92-13.51,7.87l-0.14,0.05l-42.71,7.65l-0.19,0.25l-0.14-0.15C471.06,276.44,454.76,283.15,451.52,284.31z
							 M489.53,253.78l-15.12,20.65l41.82-7.49c1.31-0.79,9.36-5.63,12.52-7.35L489.53,253.78z M530.82,259.46
							c1.02,1.51,2.01,6.5,2.38,8.48l4.83,1.06l15.99-20.75L530.82,259.46z"/>
					</g>
					<g>
						
							<linearGradient id="SVGID_00000048469204420158760480000010031037715602477455_" gradientUnits="userSpaceOnUse" x1="183.93" y1="266.354" x2="249.6269" y2="266.354" gradientTransform="matrix(0.997 0.0768 -0.0768 0.997 30.399 3.4948)">
							<stop  offset="0" style="stop-color:#58C3B7"/>
							<stop  offset="1" style="stop-color:#426BB3"/>
						</linearGradient>
						<polygon style="fill:url(#SVGID_00000048469204420158760480000010031037715602477455_);" points="209.33,320.02 
							196.07,247.78 257.81,301.64 257.35,302.29 257.31,302.26 197.26,249.88 210.12,319.87 						"/>
					</g>
				</g>
			</g>
			<g>
				
					<linearGradient id="SVGID_00000137829826913803285530000009880401538112645017_" gradientUnits="userSpaceOnUse" x1="188.1087" y1="67.8855" x2="198.697" y2="67.8855" gradientTransform="matrix(0.997 0.0768 -0.0768 0.997 30.399 3.4948)">
					<stop  offset="0" style="stop-color:#58C3B7"/>
					<stop  offset="1" style="stop-color:#426BB3"/>
				</linearGradient>
				<path style="fill:url(#SVGID_00000137829826913803285530000009880401538112645017_);" d="M222.13,89.37
					c-1.85,2.27-5.18,2.61-7.45,0.77c-2.27-1.85-2.61-5.18-0.77-7.45c1.85-2.27,5.18-2.61,7.45-0.77
					C223.63,83.76,223.97,87.1,222.13,89.37z"/>
				
					<linearGradient id="SVGID_00000124125296011786798730000000486253929871199888_" gradientUnits="userSpaceOnUse" x1="2.0005" y1="165.4379" x2="12.589" y2="165.4379" gradientTransform="matrix(0.997 0.0768 -0.0768 0.997 30.399 3.4948)">
					<stop  offset="0" style="stop-color:#58C3B7"/>
					<stop  offset="1" style="stop-color:#426BB3"/>
				</linearGradient>
				<path style="fill:url(#SVGID_00000124125296011786798730000000486253929871199888_);" d="M29.08,172.35
					c-1.85,2.27-5.18,2.61-7.45,0.77c-2.27-1.85-2.61-5.18-0.77-7.45c1.85-2.27,5.18-2.61,7.45-0.77
					C30.58,166.74,30.93,170.08,29.08,172.35z"/>
				
					<linearGradient id="SVGID_00000036242935682106040360000005401808618171615408_" gradientUnits="userSpaceOnUse" x1="94.2702" y1="327.2749" x2="104.8587" y2="327.2749" gradientTransform="matrix(0.997 0.0768 -0.0768 0.997 30.399 3.4948)">
					<stop  offset="0" style="stop-color:#58C3B7"/>
					<stop  offset="1" style="stop-color:#426BB3"/>
				</linearGradient>
				<path style="fill:url(#SVGID_00000036242935682106040360000005401808618171615408_);" d="M108.66,340.79
					c-1.85,2.27-5.18,2.61-7.45,0.77c-2.27-1.85-2.61-5.18-0.77-7.45c1.85-2.27,5.18-2.61,7.45-0.77
					C110.16,335.19,110.5,338.52,108.66,340.79z"/>
				
					<linearGradient id="SVGID_00000119826013098570937150000003720747086263737235_" gradientUnits="userSpaceOnUse" x1="197.0933" y1="301.0985" x2="207.6817" y2="301.0985" gradientTransform="matrix(0.997 0.0768 -0.0768 0.997 30.399 3.4948)">
					<stop  offset="0" style="stop-color:#58C3B7"/>
					<stop  offset="1" style="stop-color:#426BB3"/>
				</linearGradient>
				<path style="fill:url(#SVGID_00000119826013098570937150000003720747086263737235_);" d="M213.18,322.58
					c-1.85,2.27-5.18,2.61-7.45,0.77c-2.27-1.85-2.61-5.18-0.77-7.45c1.85-2.27,5.18-2.61,7.45-0.77
					C214.69,316.98,215.03,320.31,213.18,322.58z"/>
				
					<linearGradient id="SVGID_00000043433409183401325360000014949392628584295831_" gradientUnits="userSpaceOnUse" x1="180.5192" y1="231.9263" x2="191.1076" y2="231.9263" gradientTransform="matrix(0.997 0.0768 -0.0768 0.997 30.399 3.4948)">
					<stop  offset="0" style="stop-color:#58C3B7"/>
					<stop  offset="1" style="stop-color:#426BB3"/>
				</linearGradient>
				<path style="fill:url(#SVGID_00000043433409183401325360000014949392628584295831_);" d="M201.97,252.34
					c-1.85,2.27-5.18,2.61-7.45,0.77c-2.27-1.85-2.61-5.18-0.77-7.45c1.85-2.27,5.18-2.61,7.45-0.77
					C203.47,246.74,203.81,250.07,201.97,252.34z"/>
				
					<linearGradient id="SVGID_00000041292553214143102650000003019020839770258588_" gradientUnits="userSpaceOnUse" x1="537.7756" y1="205.1459" x2="548.364" y2="205.1459" gradientTransform="matrix(0.997 0.0768 -0.0768 0.997 30.399 3.4948)">
					<stop  offset="0" style="stop-color:#58C3B7"/>
					<stop  offset="1" style="stop-color:#426BB3"/>
				</linearGradient>
				<path style="fill:url(#SVGID_00000041292553214143102650000003019020839770258588_);" d="M560.23,253.06
					c-1.85,2.27-5.18,2.61-7.45,0.77c-2.27-1.85-2.61-5.18-0.77-7.45c1.84-2.27,5.18-2.61,7.45-0.77
					C561.73,247.46,562.07,250.79,560.23,253.06z"/>
				
					<linearGradient id="SVGID_00000103226348679420532260000004098794665730865586_" gradientUnits="userSpaceOnUse" x1="453.7888" y1="-14.9074" x2="464.3772" y2="-14.9074" gradientTransform="matrix(0.997 0.0768 -0.0768 0.997 30.399 3.4948)">
					<stop  offset="0" style="stop-color:#58C3B7"/>
					<stop  offset="1" style="stop-color:#426BB3"/>
				</linearGradient>
				<path style="fill:url(#SVGID_00000103226348679420532260000004098794665730865586_);" d="M493.38,27.21
					c-1.85,2.27-5.18,2.61-7.45,0.77c-2.27-1.85-2.61-5.18-0.77-7.45c1.85-2.27,5.18-2.61,7.45-0.77
					C494.88,21.61,495.22,24.94,493.38,27.21z"/>
				
					<linearGradient id="SVGID_00000093874469049378768030000011443560760919788690_" gradientUnits="userSpaceOnUse" x1="382.3804" y1="7.5513" x2="392.9687" y2="7.5513" gradientTransform="matrix(0.997 0.0768 -0.0768 0.997 30.399 3.4948)">
					<stop  offset="0" style="stop-color:#58C3B7"/>
					<stop  offset="1" style="stop-color:#426BB3"/>
				</linearGradient>
				<path style="fill:url(#SVGID_00000093874469049378768030000011443560760919788690_);" d="M420.46,44.12
					c-1.85,2.27-5.18,2.61-7.45,0.77c-2.27-1.85-2.61-5.18-0.77-7.45c1.85-2.27,5.18-2.61,7.45-0.77
					C421.96,38.52,422.3,41.85,420.46,44.12z"/>
				
					<linearGradient id="SVGID_00000093147676916521012320000015339609943043561630_" gradientUnits="userSpaceOnUse" x1="321.5643" y1="153.139" x2="332.1526" y2="153.139" gradientTransform="matrix(0.997 0.0768 -0.0768 0.997 30.399 3.4948)">
					<stop  offset="0" style="stop-color:#58C3B7"/>
					<stop  offset="1" style="stop-color:#426BB3"/>
				</linearGradient>
				<path style="fill:url(#SVGID_00000093147676916521012320000015339609943043561630_);" d="M348.65,184.61
					c-1.85,2.27-5.18,2.61-7.45,0.77c-2.27-1.85-2.61-5.18-0.77-7.45c1.85-2.27,5.18-2.61,7.45-0.77
					C350.15,179.01,350.49,182.34,348.65,184.61z"/>
				
					<linearGradient id="SVGID_00000088101042718302028320000012211282176193731755_" gradientUnits="userSpaceOnUse" x1="494.0049" y1="130.0225" x2="504.5934" y2="130.0225" gradientTransform="matrix(0.997 0.0768 -0.0768 0.997 30.399 3.4948)">
					<stop  offset="0" style="stop-color:#58C3B7"/>
					<stop  offset="1" style="stop-color:#426BB3"/>
				</linearGradient>
				<path style="fill:url(#SVGID_00000088101042718302028320000012211282176193731755_);" d="M522.35,174.8
					c-1.84,2.27-5.18,2.61-7.45,0.77c-2.27-1.85-2.61-5.18-0.77-7.45c1.85-2.27,5.18-2.61,7.45-0.77
					C523.85,169.2,524.2,172.53,522.35,174.8z"/>
			</g>
		</g>
	</g>
</g>
</svg>
